M48
;GenerationSoftware,Autodesk,EAGLE,9.3.2*%
;CreationDate,2019-07-04T21:03:50Z*%
FMAT,2
ICI,OFF
METRIC,TZ,000.000
T5C0.813
T4C1.000
T3C1.016
T2C1.118
T1C3.000
%
G90
M71
T1
X71374Y4445
X4699Y4445
X71374Y76835
X4699Y76835
T2
X46609Y69850
X46609Y59690
X44069Y57150
X44069Y46990
X46609Y44450
X46609Y34290
X44069Y31750
X44069Y21590
X46609Y19050
X46609Y8890
X66294Y33020
X66294Y29210
X66294Y25400
X66294Y17780
X66294Y13970
X66294Y10160
X53911Y73978
X48831Y73978
X58991Y73978
X17399Y5080
X66294Y67310
X66294Y55880
X66294Y63500
X66294Y59690
X66294Y52070
X66294Y48260
X66294Y44450
X66294Y40640
X66294Y36830
X32004Y5080
X62484Y5080
X12319Y5080
X26924Y5080
X52324Y5080
X57404Y5080
T3
X37084Y17780
X37084Y33020
X37084Y35560
X37084Y38100
X37084Y40640
X37084Y30480
X37084Y27940
X37084Y25400
X37084Y22860
X37084Y20320
X37084Y45720
X37084Y15240
X37084Y12700
X37084Y10160
X6604Y55880
X6604Y53340
X6604Y50800
X6604Y48260
X6604Y45720
X37084Y48260
X6604Y40640
X6604Y38100
X6604Y35560
X6604Y33020
X6604Y30480
X6604Y27940
X6604Y25400
X6604Y22860
X6604Y43180
X6604Y17780
X6604Y15240
X6604Y12700
X6604Y10160
X37084Y50800
X37084Y53340
X37084Y55880
X37084Y43180
X6604Y20320
T4
X61214Y10160
X61214Y17780
X58674Y17780
X56134Y17780
X53594Y17780
X51054Y17780
X51054Y60960
X53594Y60960
X56134Y60960
X58674Y60960
X61214Y60960
X61214Y68580
X58674Y68580
X56134Y68580
X53594Y68580
X51054Y68580
X10424Y55890
X10424Y53350
X10424Y50810
X10424Y48270
X51054Y35560
X10424Y43190
X10424Y40650
X10424Y38110
X10424Y35570
X10424Y33030
X10424Y30490
X10424Y27950
X10424Y25410
X10424Y22870
X10424Y20330
X10424Y17790
X10424Y15250
X10424Y12710
X10424Y10170
X33074Y55890
X33074Y53350
X33074Y50810
X33074Y48270
X33074Y45730
X33074Y43190
X33074Y40650
X33074Y38110
X33074Y35570
X33074Y33030
X33074Y30490
X33074Y27950
X33074Y25410
X33074Y22870
X33074Y20330
X33074Y17790
X33074Y15250
X33074Y12710
X33074Y10170
X51054Y48260
X53594Y48260
X56134Y48260
X58674Y48260
X61214Y48260
X61214Y55880
X58674Y55880
X56134Y55880
X53594Y55880
X51054Y55880
X53594Y35560
X56134Y35560
X58674Y35560
X61214Y35560
X61214Y43180
X58674Y43180
X56134Y43180
X53594Y43180
X51054Y43180
X51054Y22860
X53594Y22860
X56134Y22860
X58674Y22860
X61214Y22860
X61214Y30480
X58674Y30480
X56134Y30480
X53594Y30480
X51054Y30480
X10424Y45730
X51054Y10160
X53594Y10160
X56134Y10160
X58674Y10160
T5
X26670Y30480
X16510Y30480
X26670Y27940
X16510Y27940
X16510Y25400
X26670Y25400
X26670Y33020
X16510Y33020
X26670Y38100
X16510Y38100
X26670Y35560
X16510Y35560
X8128Y64008
X6858Y62103
X5588Y64008
X15240Y64008
X13970Y62103
X12700Y64008
X22606Y64008
X21336Y62103
X20066Y64008
X29972Y64008
X28702Y62103
X27432Y64008
X37592Y64008
X36322Y62103
X35052Y64008
X39624Y4064
X40894Y5969
X42164Y4064
M30