G04 EAGLE Gerber RS-274X export*
G75*
%MOMM*%
%FSLAX34Y34*%
%LPD*%
%IN*%
%IPPOS*%
%AMOC8*
5,1,8,0,0,1.08239X$1,22.5*%
G01*
%ADD10C,0.254000*%


D10*
X2540Y38300D02*
X2685Y34979D01*
X3119Y31684D01*
X3838Y28439D01*
X4838Y25269D01*
X6110Y22198D01*
X7644Y19250D01*
X9430Y16447D01*
X11454Y13810D01*
X13699Y11359D01*
X16150Y9114D01*
X18787Y7090D01*
X21590Y5304D01*
X24538Y3770D01*
X27609Y2498D01*
X30779Y1498D01*
X34024Y779D01*
X37319Y345D01*
X40640Y200D01*
X708100Y200D01*
X711981Y-185D01*
X715880Y-230D01*
X719769Y64D01*
X723617Y697D01*
X727396Y1662D01*
X731076Y2953D01*
X734629Y4560D01*
X738029Y6471D01*
X741249Y8670D01*
X744266Y11142D01*
X747055Y13868D01*
X749597Y16826D01*
X751870Y19994D01*
X753860Y23349D01*
X755549Y26864D01*
X756925Y30513D01*
X757978Y34268D01*
X758700Y38100D01*
X758700Y774700D01*
X757977Y778550D01*
X756922Y782322D01*
X755542Y785988D01*
X753848Y789520D01*
X751852Y792890D01*
X749570Y796074D01*
X747019Y799047D01*
X744219Y801786D01*
X741191Y804271D01*
X737958Y806482D01*
X734544Y808404D01*
X730976Y810020D01*
X727280Y811319D01*
X723486Y812291D01*
X719621Y812929D01*
X715715Y813227D01*
X711798Y813184D01*
X707900Y812800D01*
X40640Y812800D01*
X37319Y812655D01*
X34024Y812221D01*
X30779Y811502D01*
X27609Y810502D01*
X24538Y809230D01*
X21590Y807696D01*
X18787Y805910D01*
X16150Y803886D01*
X13699Y801641D01*
X11454Y799190D01*
X9430Y796553D01*
X7644Y793750D01*
X6110Y790802D01*
X4838Y787731D01*
X3838Y784561D01*
X3119Y781316D01*
X2685Y778021D01*
X2540Y774700D01*
X2540Y38300D01*
X728740Y43914D02*
X728664Y42846D01*
X728511Y41785D01*
X728283Y40738D01*
X727981Y39710D01*
X727607Y38706D01*
X727162Y37731D01*
X726648Y36791D01*
X726069Y35890D01*
X725427Y35032D01*
X724725Y34222D01*
X723968Y33465D01*
X723158Y32763D01*
X722300Y32121D01*
X721399Y31542D01*
X720459Y31028D01*
X719484Y30583D01*
X718480Y30209D01*
X717452Y29907D01*
X716405Y29679D01*
X715344Y29526D01*
X714276Y29450D01*
X713204Y29450D01*
X712136Y29526D01*
X711075Y29679D01*
X710028Y29907D01*
X709000Y30209D01*
X707996Y30583D01*
X707021Y31028D01*
X706081Y31542D01*
X705180Y32121D01*
X704322Y32763D01*
X703512Y33465D01*
X702755Y34222D01*
X702053Y35032D01*
X701411Y35890D01*
X700832Y36791D01*
X700318Y37731D01*
X699873Y38706D01*
X699499Y39710D01*
X699197Y40738D01*
X698969Y41785D01*
X698816Y42846D01*
X698740Y43914D01*
X698740Y44986D01*
X698816Y46054D01*
X698969Y47115D01*
X699197Y48162D01*
X699499Y49190D01*
X699873Y50194D01*
X700318Y51169D01*
X700832Y52109D01*
X701411Y53010D01*
X702053Y53868D01*
X702755Y54678D01*
X703512Y55435D01*
X704322Y56137D01*
X705180Y56779D01*
X706081Y57358D01*
X707021Y57872D01*
X707996Y58317D01*
X709000Y58691D01*
X710028Y58993D01*
X711075Y59221D01*
X712136Y59374D01*
X713204Y59450D01*
X714276Y59450D01*
X715344Y59374D01*
X716405Y59221D01*
X717452Y58993D01*
X718480Y58691D01*
X719484Y58317D01*
X720459Y57872D01*
X721399Y57358D01*
X722300Y56779D01*
X723158Y56137D01*
X723968Y55435D01*
X724725Y54678D01*
X725427Y53868D01*
X726069Y53010D01*
X726648Y52109D01*
X727162Y51169D01*
X727607Y50194D01*
X727981Y49190D01*
X728283Y48162D01*
X728511Y47115D01*
X728664Y46054D01*
X728740Y44986D01*
X728740Y43914D01*
X61990Y43914D02*
X61914Y42846D01*
X61761Y41785D01*
X61533Y40738D01*
X61231Y39710D01*
X60857Y38706D01*
X60412Y37731D01*
X59898Y36791D01*
X59319Y35890D01*
X58677Y35032D01*
X57975Y34222D01*
X57218Y33465D01*
X56408Y32763D01*
X55550Y32121D01*
X54649Y31542D01*
X53709Y31028D01*
X52734Y30583D01*
X51730Y30209D01*
X50702Y29907D01*
X49655Y29679D01*
X48594Y29526D01*
X47526Y29450D01*
X46454Y29450D01*
X45386Y29526D01*
X44325Y29679D01*
X43278Y29907D01*
X42250Y30209D01*
X41246Y30583D01*
X40271Y31028D01*
X39331Y31542D01*
X38430Y32121D01*
X37572Y32763D01*
X36762Y33465D01*
X36005Y34222D01*
X35303Y35032D01*
X34661Y35890D01*
X34082Y36791D01*
X33568Y37731D01*
X33123Y38706D01*
X32749Y39710D01*
X32447Y40738D01*
X32219Y41785D01*
X32066Y42846D01*
X31990Y43914D01*
X31990Y44986D01*
X32066Y46054D01*
X32219Y47115D01*
X32447Y48162D01*
X32749Y49190D01*
X33123Y50194D01*
X33568Y51169D01*
X34082Y52109D01*
X34661Y53010D01*
X35303Y53868D01*
X36005Y54678D01*
X36762Y55435D01*
X37572Y56137D01*
X38430Y56779D01*
X39331Y57358D01*
X40271Y57872D01*
X41246Y58317D01*
X42250Y58691D01*
X43278Y58993D01*
X44325Y59221D01*
X45386Y59374D01*
X46454Y59450D01*
X47526Y59450D01*
X48594Y59374D01*
X49655Y59221D01*
X50702Y58993D01*
X51730Y58691D01*
X52734Y58317D01*
X53709Y57872D01*
X54649Y57358D01*
X55550Y56779D01*
X56408Y56137D01*
X57218Y55435D01*
X57975Y54678D01*
X58677Y53868D01*
X59319Y53010D01*
X59898Y52109D01*
X60412Y51169D01*
X60857Y50194D01*
X61231Y49190D01*
X61533Y48162D01*
X61761Y47115D01*
X61914Y46054D01*
X61990Y44986D01*
X61990Y43914D01*
X728740Y767814D02*
X728664Y766746D01*
X728511Y765685D01*
X728283Y764638D01*
X727981Y763610D01*
X727607Y762606D01*
X727162Y761631D01*
X726648Y760691D01*
X726069Y759790D01*
X725427Y758932D01*
X724725Y758122D01*
X723968Y757365D01*
X723158Y756663D01*
X722300Y756021D01*
X721399Y755442D01*
X720459Y754928D01*
X719484Y754483D01*
X718480Y754109D01*
X717452Y753807D01*
X716405Y753579D01*
X715344Y753426D01*
X714276Y753350D01*
X713204Y753350D01*
X712136Y753426D01*
X711075Y753579D01*
X710028Y753807D01*
X709000Y754109D01*
X707996Y754483D01*
X707021Y754928D01*
X706081Y755442D01*
X705180Y756021D01*
X704322Y756663D01*
X703512Y757365D01*
X702755Y758122D01*
X702053Y758932D01*
X701411Y759790D01*
X700832Y760691D01*
X700318Y761631D01*
X699873Y762606D01*
X699499Y763610D01*
X699197Y764638D01*
X698969Y765685D01*
X698816Y766746D01*
X698740Y767814D01*
X698740Y768886D01*
X698816Y769954D01*
X698969Y771015D01*
X699197Y772062D01*
X699499Y773090D01*
X699873Y774094D01*
X700318Y775069D01*
X700832Y776009D01*
X701411Y776910D01*
X702053Y777768D01*
X702755Y778578D01*
X703512Y779335D01*
X704322Y780037D01*
X705180Y780679D01*
X706081Y781258D01*
X707021Y781772D01*
X707996Y782217D01*
X709000Y782591D01*
X710028Y782893D01*
X711075Y783121D01*
X712136Y783274D01*
X713204Y783350D01*
X714276Y783350D01*
X715344Y783274D01*
X716405Y783121D01*
X717452Y782893D01*
X718480Y782591D01*
X719484Y782217D01*
X720459Y781772D01*
X721399Y781258D01*
X722300Y780679D01*
X723158Y780037D01*
X723968Y779335D01*
X724725Y778578D01*
X725427Y777768D01*
X726069Y776910D01*
X726648Y776009D01*
X727162Y775069D01*
X727607Y774094D01*
X727981Y773090D01*
X728283Y772062D01*
X728511Y771015D01*
X728664Y769954D01*
X728740Y768886D01*
X728740Y767814D01*
X61990Y767814D02*
X61914Y766746D01*
X61761Y765685D01*
X61533Y764638D01*
X61231Y763610D01*
X60857Y762606D01*
X60412Y761631D01*
X59898Y760691D01*
X59319Y759790D01*
X58677Y758932D01*
X57975Y758122D01*
X57218Y757365D01*
X56408Y756663D01*
X55550Y756021D01*
X54649Y755442D01*
X53709Y754928D01*
X52734Y754483D01*
X51730Y754109D01*
X50702Y753807D01*
X49655Y753579D01*
X48594Y753426D01*
X47526Y753350D01*
X46454Y753350D01*
X45386Y753426D01*
X44325Y753579D01*
X43278Y753807D01*
X42250Y754109D01*
X41246Y754483D01*
X40271Y754928D01*
X39331Y755442D01*
X38430Y756021D01*
X37572Y756663D01*
X36762Y757365D01*
X36005Y758122D01*
X35303Y758932D01*
X34661Y759790D01*
X34082Y760691D01*
X33568Y761631D01*
X33123Y762606D01*
X32749Y763610D01*
X32447Y764638D01*
X32219Y765685D01*
X32066Y766746D01*
X31990Y767814D01*
X31990Y768886D01*
X32066Y769954D01*
X32219Y771015D01*
X32447Y772062D01*
X32749Y773090D01*
X33123Y774094D01*
X33568Y775069D01*
X34082Y776009D01*
X34661Y776910D01*
X35303Y777768D01*
X36005Y778578D01*
X36762Y779335D01*
X37572Y780037D01*
X38430Y780679D01*
X39331Y781258D01*
X40271Y781772D01*
X41246Y782217D01*
X42250Y782591D01*
X43278Y782893D01*
X44325Y783121D01*
X45386Y783274D01*
X46454Y783350D01*
X47526Y783350D01*
X48594Y783274D01*
X49655Y783121D01*
X50702Y782893D01*
X51730Y782591D01*
X52734Y782217D01*
X53709Y781772D01*
X54649Y781258D01*
X55550Y780679D01*
X56408Y780037D01*
X57218Y779335D01*
X57975Y778578D01*
X58677Y777768D01*
X59319Y776910D01*
X59898Y776009D01*
X60412Y775069D01*
X60857Y774094D01*
X61231Y773090D01*
X61533Y772062D01*
X61761Y771015D01*
X61914Y769954D01*
X61990Y768886D01*
X61990Y767814D01*
M02*
