G04 EAGLE Gerber RS-274X export*
G75*
%MOMM*%
%FSLAX34Y34*%
%LPD*%
%INSoldermask Top*%
%IPPOS*%
%AMOC8*
5,1,8,0,0,1.08239X$1,22.5*%
G01*
%ADD10C,1.016000*%
%ADD11C,0.609600*%
%ADD12C,1.879600*%
%ADD13C,1.711200*%
%ADD14P,2.556822X8X22.500000*%
%ADD15P,2.556822X8X292.500000*%
%ADD16P,1.649562X8X202.500000*%
%ADD17P,1.649562X8X22.500000*%
%ADD18C,3.203200*%
%ADD19C,2.133600*%
%ADD20C,1.727200*%
%ADD21P,2.556822X8X202.500000*%
%ADD22P,2.556822X8X112.500000*%


D10*
X120015Y758825D02*
X120015Y790575D01*
D11*
X135890Y774700D02*
X135890Y758825D01*
D10*
X151765Y758825D02*
X151765Y790575D01*
D11*
X135890Y774700D02*
X120015Y790575D01*
X135890Y774700D02*
X151765Y790575D01*
D10*
X123190Y755650D02*
X116840Y755650D01*
X148590Y755650D02*
X154940Y755650D01*
X123190Y790575D02*
X120015Y790575D01*
X116840Y790575D01*
X148590Y790575D02*
X154940Y790575D01*
D11*
X139065Y758825D02*
X132715Y758825D01*
D12*
X466090Y698500D03*
X466090Y596900D03*
X440690Y571500D03*
X440690Y469900D03*
X466090Y444500D03*
X466090Y342900D03*
X440690Y317500D03*
X440690Y215900D03*
X466090Y190500D03*
X466090Y88900D03*
D13*
X510540Y482600D03*
X535940Y482600D03*
X561340Y482600D03*
X586740Y482600D03*
X612140Y482600D03*
X612140Y558800D03*
X586740Y558800D03*
X561340Y558800D03*
X535940Y558800D03*
X510540Y558800D03*
X510540Y355600D03*
X535940Y355600D03*
X561340Y355600D03*
X586740Y355600D03*
X612140Y355600D03*
X612140Y431800D03*
X586740Y431800D03*
X561340Y431800D03*
X535940Y431800D03*
X510540Y431800D03*
X510540Y228600D03*
X535940Y228600D03*
X561340Y228600D03*
X586740Y228600D03*
X612140Y228600D03*
X612140Y304800D03*
X586740Y304800D03*
X561340Y304800D03*
X535940Y304800D03*
X510540Y304800D03*
X510540Y101600D03*
X535940Y101600D03*
X561340Y101600D03*
X586740Y101600D03*
X612140Y101600D03*
X612140Y177800D03*
X586740Y177800D03*
X561340Y177800D03*
X535940Y177800D03*
X510540Y177800D03*
X510540Y609600D03*
X535940Y609600D03*
X561340Y609600D03*
X586740Y609600D03*
X612140Y609600D03*
X612140Y685800D03*
X586740Y685800D03*
X561340Y685800D03*
X535940Y685800D03*
X510540Y685800D03*
D14*
X662940Y673100D03*
X662940Y635000D03*
X662940Y596900D03*
X662940Y558800D03*
X662940Y520700D03*
X662940Y482600D03*
X662940Y444500D03*
X662940Y406400D03*
X662940Y368300D03*
X662940Y330200D03*
X662940Y292100D03*
X662940Y254000D03*
X662940Y177800D03*
X662940Y139700D03*
X662940Y101600D03*
D15*
X539115Y739775D03*
X488315Y739775D03*
X589915Y739775D03*
X173990Y50800D03*
D16*
X266700Y254000D03*
X165100Y254000D03*
D17*
X165100Y279400D03*
X266700Y279400D03*
X165100Y304800D03*
X266700Y304800D03*
X165100Y355600D03*
X266700Y355600D03*
X165100Y381000D03*
X266700Y381000D03*
D18*
X713740Y44450D03*
X46990Y44450D03*
X713740Y768350D03*
X46990Y768350D03*
D19*
X104240Y558900D03*
X104240Y533500D03*
X104240Y508100D03*
X104240Y482700D03*
X104240Y457300D03*
X104240Y431900D03*
X104240Y406500D03*
X104240Y381100D03*
X104240Y355700D03*
X104240Y330300D03*
X104240Y304900D03*
X104240Y279500D03*
X104240Y254100D03*
X104240Y228700D03*
X104240Y203300D03*
X104240Y177900D03*
X104240Y152500D03*
X104240Y127100D03*
X104240Y101700D03*
X330740Y558900D03*
X330740Y533500D03*
X330740Y508100D03*
X330740Y482700D03*
X330740Y457300D03*
X330740Y431900D03*
X330740Y406500D03*
X330740Y381100D03*
X330740Y355700D03*
X330740Y330300D03*
X330740Y304900D03*
X330740Y279500D03*
X330740Y254100D03*
X330740Y228700D03*
X330740Y203300D03*
X330740Y177900D03*
X330740Y152500D03*
X330740Y127100D03*
X330740Y101700D03*
D20*
X363220Y558800D02*
X378460Y558800D01*
X378460Y533400D02*
X363220Y533400D01*
X363220Y508000D02*
X378460Y508000D01*
X378460Y482600D02*
X363220Y482600D01*
X363220Y457200D02*
X378460Y457200D01*
X378460Y431800D02*
X363220Y431800D01*
X363220Y406400D02*
X378460Y406400D01*
X378460Y381000D02*
X363220Y381000D01*
X363220Y355600D02*
X378460Y355600D01*
X378460Y330200D02*
X363220Y330200D01*
X363220Y304800D02*
X378460Y304800D01*
X378460Y279400D02*
X363220Y279400D01*
X363220Y254000D02*
X378460Y254000D01*
X378460Y228600D02*
X363220Y228600D01*
X363220Y203200D02*
X378460Y203200D01*
X378460Y177800D02*
X363220Y177800D01*
X363220Y152400D02*
X378460Y152400D01*
X378460Y127000D02*
X363220Y127000D01*
X363220Y101600D02*
X378460Y101600D01*
X73660Y558800D02*
X58420Y558800D01*
X58420Y533400D02*
X73660Y533400D01*
X73660Y508000D02*
X58420Y508000D01*
X58420Y482600D02*
X73660Y482600D01*
X73660Y457200D02*
X58420Y457200D01*
X58420Y431800D02*
X73660Y431800D01*
X73660Y406400D02*
X58420Y406400D01*
X58420Y381000D02*
X73660Y381000D01*
X73660Y355600D02*
X58420Y355600D01*
X58420Y330200D02*
X73660Y330200D01*
X73660Y304800D02*
X58420Y304800D01*
X58420Y279400D02*
X73660Y279400D01*
X73660Y254000D02*
X58420Y254000D01*
X58420Y228600D02*
X73660Y228600D01*
X73660Y203200D02*
X58420Y203200D01*
X58420Y177800D02*
X73660Y177800D01*
X73660Y152400D02*
X58420Y152400D01*
X58420Y127000D02*
X73660Y127000D01*
X73660Y101600D02*
X58420Y101600D01*
D21*
X123190Y50800D03*
D14*
X320040Y50800D03*
D16*
X266700Y330200D03*
X165100Y330200D03*
D14*
X269240Y50800D03*
D22*
X523240Y50800D03*
X574040Y50800D03*
X624840Y50800D03*
D12*
X81280Y640080D03*
X68580Y621030D03*
X55880Y640080D03*
X152400Y640080D03*
X139700Y621030D03*
X127000Y640080D03*
X226060Y640080D03*
X213360Y621030D03*
X200660Y640080D03*
X299720Y640080D03*
X287020Y621030D03*
X274320Y640080D03*
X375920Y640080D03*
X363220Y621030D03*
X350520Y640080D03*
X396240Y40640D03*
X408940Y59690D03*
X421640Y40640D03*
M02*
